<svg xmlns="http://www.w3.org/2000/svg" width="44.694" height="30.156" viewBox="0 0 44.694 30.156">
  <path id="Caminho_7" data-name="Caminho 7" d="M6.28-82.325v-5.566q1.163-.727,2.908-2.025t3.666-2.918q1.921-1.62,3.593-3.292A24.58,24.58,0,0,0,19.177-99.3a4.751,4.751,0,0,0,1.059-2.544,3.76,3.76,0,0,0-.519-1.942,3.941,3.941,0,0,0-1.381-1.4,3.651,3.651,0,0,0-1.921-.519,3.705,3.705,0,0,0-1.931.519,4,4,0,0,0-1.4,1.4,3.7,3.7,0,0,0-.53,1.942H6.322A9.7,9.7,0,0,1,7.713-107a10.3,10.3,0,0,1,3.686-3.614,9.831,9.831,0,0,1,5.016-1.329,9.736,9.736,0,0,1,5.047,1.35,10.217,10.217,0,0,1,3.645,3.645,9.811,9.811,0,0,1,1.36,5.1,9.238,9.238,0,0,1-.374,2.648A11.083,11.083,0,0,1,25-96.728a18.741,18.741,0,0,1-1.776,2.482q-1.059,1.267-2.44,2.669t-3.043,3.022H28.583v6.231Zm33.728-21.35a10.646,10.646,0,0,1,5.524,1.475A11.14,11.14,0,0,1,49.5-98.244a10.553,10.553,0,0,1,1.475,5.493,10.725,10.725,0,0,1-.852,4.258,11.02,11.02,0,0,1-2.357,3.5,11.052,11.052,0,0,1-3.489,2.357,10.7,10.7,0,0,1-4.268.852,6.109,6.109,0,0,1-2.949-.706,8.485,8.485,0,0,1-2.285-1.786v1.952H28.544V-111.89h6.231v10.708a8.129,8.129,0,0,1,2.285-1.8A6.182,6.182,0,0,1,40.008-103.675Zm-.083,15.867a4.327,4.327,0,0,0,2.347-.665,4.851,4.851,0,0,0,1.682-1.786,5.044,5.044,0,0,0,.623-2.492,5,5,0,0,0-.623-2.471,4.935,4.935,0,0,0-1.682-1.8,4.277,4.277,0,0,0-2.347-.675,4.191,4.191,0,0,0-2.316.675,4.966,4.966,0,0,0-1.672,1.8,5,5,0,0,0-.623,2.471,5.044,5.044,0,0,0,.623,2.492,4.88,4.88,0,0,0,1.672,1.786A4.239,4.239,0,0,0,39.925-87.808Z" transform="translate(-6.28 111.941)" fill="#e8335d"/>
</svg>